<svg width="1600" height="1000" viewBox="0 0 1600 1000" fill="none" xmlns="http://www.w3.org/2000/svg">
  <defs>
    <linearGradient id="a" x1="0" y1="0" x2="1600" y2="1000" gradientUnits="userSpaceOnUse">
      <stop stop-color="#1f2f46"/>
      <stop offset="1" stop-color="#2b425f"/>
    </linearGradient>
    <linearGradient id="b" x1="0" y1="0" x2="1" y2="1">
      <stop stop-color="#C9A75D" stop-opacity="0.75"/>
      <stop offset="1" stop-color="#C9A75D" stop-opacity="0.05"/>
    </linearGradient>
  </defs>
  <rect width="1600" height="1000" fill="url(#a)"/>
  <circle cx="240" cy="240" r="280" fill="url(#b)"/>
  <circle cx="1340" cy="820" r="360" fill="url(#b)"/>
  <path d="M0 770C240 680 430 720 620 770C810 820 1010 860 1240 780C1360 740 1470 700 1600 650V1000H0V770Z" fill="#F8F4EB" fill-opacity="0.14"/>
  <path d="M0 830C220 770 390 790 580 840C770 890 1010 930 1240 860C1370 820 1480 780 1600 750V1000H0V830Z" fill="#F8F4EB" fill-opacity="0.08"/>
</svg>
